<svg width="11" height="11" viewBox="0 0 11 11" fill="none" xmlns="http://www.w3.org/2000/svg">
<path fill-rule="evenodd" clip-rule="evenodd" d="M0.800054 9.891C0.659401 9.75035 0.580384 9.55959 0.580384 9.36067C0.580384 9.16176 0.659401 8.971 0.800054 8.83034L8.00547 1.62492L4.15881 1.62493C3.9646 1.61807 3.78063 1.5361 3.64567 1.39628C3.5107 1.25647 3.43527 1.06972 3.43527 0.875392C3.43527 0.681061 3.5107 0.494316 3.64567 0.3545C3.78063 0.214684 3.9646 0.132714 4.15881 0.125859L9.81566 0.125859C10.0144 0.125982 10.205 0.204991 10.3455 0.345528C10.4861 0.486066 10.5651 0.676641 10.5652 0.875392L10.5652 6.53225C10.5583 6.72646 10.4764 6.91042 10.3366 7.04539C10.1967 7.18036 10.01 7.25579 9.81566 7.25579C9.62133 7.25579 9.43459 7.18036 9.29477 7.04539C9.15496 6.91042 9.07299 6.72646 9.06613 6.53225V2.68559L1.86071 9.891C1.72006 10.0317 1.5293 10.1107 1.33038 10.1107C1.13147 10.1107 0.940706 10.0317 0.800054 9.891Z" fill="white"/>
</svg>
