<svg width="6" height="11" viewBox="0 0 6 11" fill="none" xmlns="http://www.w3.org/2000/svg">
<path d="M0.161239 10.0726C0.109734 10.125 0.0694686 10.1868 0.0427418 10.2542C0.0160151 10.3217 0.00334983 10.3936 0.00547032 10.4657C0.00759081 10.5379 0.0244551 10.609 0.0551005 10.6749C0.0857454 10.7408 0.129571 10.8002 0.184075 10.8498C0.238579 10.8994 0.302695 10.9382 0.37276 10.9639C0.442826 10.9896 0.517469 11.0018 0.592429 10.9998C0.667389 10.9977 0.741197 10.9815 0.80964 10.952C0.878082 10.9225 0.939818 10.8803 0.991324 10.8278L5.84395 5.88072C5.94416 5.77866 6 5.64354 6 5.50309C6 5.36264 5.94416 5.22752 5.84395 5.12546L0.991325 0.177814C0.940159 0.124187 0.878437 0.0808826 0.809742 0.0504165C0.741048 0.0199514 0.666752 0.00293208 0.591168 0.000345711C0.515584 -0.00223971 0.440221 0.00966119 0.369454 0.035356C0.298687 0.0610509 0.233929 0.100028 0.17894 0.150024C0.12395 0.200019 0.0798268 0.260037 0.0491318 0.32659C0.0184369 0.393143 0.00178238 0.464905 0.00013586 0.537709C-0.00151114 0.610511 0.0118827 0.682904 0.0395393 0.75068C0.0671958 0.818457 0.108564 0.880268 0.16124 0.93252L4.64392 5.50309L0.161239 10.0726Z" fill="#111111"/>
</svg>
