<svg width="24" height="24" viewBox="0 0 24 24" fill="none" xmlns="http://www.w3.org/2000/svg">
<path d="M9 22H15C20 22 22 20 22 15V9C22 4 20 2 15 2H9C4 2 2 4 2 9V15C2 20 4 22 9 22Z" stroke="#6D6D6D" stroke-width="1.5" stroke-linecap="round" stroke-linejoin="round"/>
<path d="M11.1402 5.05505C11.0799 5.01902 11.011 5 10.9407 5C10.8705 5 10.8015 5.01902 10.7412 5.05505C10.6914 5.09457 10.6577 5.151 10.6467 5.21366C10.6356 5.27632 10.6479 5.34086 10.6812 5.39505C11.9082 7.51805 12.1672 10.4111 10.4912 12.0061C9.84703 11.4644 9.33559 10.7823 8.99624 10.0121C8.37669 10.3561 7.86321 10.8633 7.51151 11.4785C7.15982 12.0938 6.98334 12.7936 7.00124 13.5021C7.0266 14.1267 7.17663 14.7399 7.4425 15.3057C7.70837 15.8715 8.08472 16.3783 8.54939 16.7965C9.01406 17.2147 9.55767 17.5357 10.1482 17.7407C10.7388 17.9457 11.3644 18.0304 11.9882 17.9901C15.1992 17.9901 16.8652 15.9961 16.9742 13.5021C17.1042 10.5101 14.9802 6.83005 11.1402 5.05505Z" stroke="#6D6D6D" stroke-width="1.5" stroke-linecap="round" stroke-linejoin="round"/>
</svg>
