<svg width="48" height="48" viewBox="0 0 48 48" fill="none" xmlns="http://www.w3.org/2000/svg">
<path opacity="0.2" d="M47.28 29.8062C44.0745 42.6634 31.0515 50.4874 18.1927 47.2819C5.33999 44.0765 -2.48476 31.0534 0.721486 18.1969C3.92549 5.3382 16.9477 -2.4873 29.8027 0.718197C42.6607 3.9237 50.4847 16.9482 47.2792 29.8062H47.28Z" fill="#F7931A" fill-opacity="0.6"/>
<path fill-rule="evenodd" clip-rule="evenodd" d="M31.2283 21.2118C31.5518 19.0454 29.9024 17.8807 27.6469 17.1038L28.3785 14.1691L26.5917 13.7239L25.8794 16.5813C25.4103 16.4643 24.9279 16.3539 24.4486 16.2445L25.166 13.3683L23.3807 12.9231L22.6485 15.8568C22.2598 15.7682 21.8782 15.6807 21.5078 15.5886L21.5099 15.5795L19.0463 14.9644L18.5711 16.8723C18.5711 16.8723 19.8965 17.1761 19.8685 17.1949C20.592 17.3755 20.7233 17.8543 20.7009 18.2338L19.8675 21.5771C19.9174 21.5898 19.982 21.6081 20.0532 21.6366L19.865 21.5898L18.6963 26.2732C18.6077 26.493 18.3834 26.8227 17.8776 26.6975C17.8954 26.7235 16.5792 26.3734 16.5792 26.3734L15.6924 28.4188L18.0175 28.9983C18.28 29.0641 18.5394 29.1317 18.7958 29.1986L18.796 29.1987C18.962 29.242 19.1268 29.285 19.2905 29.327L18.5513 32.2958L20.3356 32.7409L21.0682 29.8042C21.5552 29.9365 22.0283 30.0586 22.4913 30.1736L21.7617 33.0966L23.5481 33.5418L24.2874 30.5791C27.3335 31.1556 29.6246 30.923 30.5877 28.1685C31.3646 25.9501 30.5495 24.6705 28.9468 23.8356C30.114 23.5654 30.9932 22.7977 31.2278 21.2118H31.2283ZM27.1462 26.9351C26.6391 28.9711 23.4516 28.1287 21.9944 27.7436L21.9943 27.7436C21.8639 27.7091 21.7473 27.6783 21.6478 27.6536L22.6287 23.7211C22.7504 23.7515 22.8991 23.7849 23.0675 23.8227C24.575 24.1609 27.6644 24.8542 27.1468 26.9351H27.1462ZM23.3705 21.9979C24.5864 22.3222 27.2366 23.0293 27.6983 21.1797C28.1703 19.2876 25.5932 18.7173 24.3346 18.4388C24.1931 18.4074 24.0683 18.3798 23.9663 18.3544L23.0769 21.921C23.1611 21.942 23.2599 21.9683 23.3705 21.9979Z" fill="#F7931A" fill-opacity="0.7"/>
</svg>
